HIERARCHY
ROOT Hips
{
    OFFSET 0.000000 0.000000 0.000000
    CHANNELS 6 Xposition Yposition Zposition Zrotation Xrotation Yrotation
    JOINT Spine
    {
        OFFSET 0.000002 7.164412 0.000002
        CHANNELS 3 Zrotation Xrotation Yrotation
        JOINT Spine1
        {
            OFFSET -0.000001 20.126801 -0.000002
            CHANNELS 3 Zrotation Xrotation Yrotation
            JOINT Neck
            {
                OFFSET 0.000000 21.094069 0.000000
                CHANNELS 3 Zrotation Xrotation Yrotation
                JOINT Head
                {
                    OFFSET -0.000001 12.838277 1.776080
                    CHANNELS 3 Zrotation Xrotation Yrotation
                    End Site
                    {
                        OFFSET 0.000000 17.760757 0.000000
                    }
                }
            }
            JOINT LeftShoulder
            {
                OFFSET 3.550527 15.465700 -0.908803
                CHANNELS 3 Zrotation Xrotation Yrotation
                JOINT LeftArm
                {
                    OFFSET 12.513296 -0.000006 -0.000002
                    CHANNELS 3 Zrotation Xrotation Yrotation
                    JOINT LeftForeArm
                    {
                        OFFSET 24.225996 -0.000003 0.000001
                        CHANNELS 3 Zrotation Xrotation Yrotation
                        JOINT LeftHand
                        {
                            OFFSET 20.711399 -0.000005 -0.000004
                            CHANNELS 3 Zrotation Xrotation Yrotation
                            JOINT LeftHandThumb1
                            {
                                OFFSET 2.121969 -2.411331 3.375859
                                CHANNELS 3 Zrotation Xrotation Yrotation
                                JOINT LeftHandThumb2
                                {
                                    OFFSET 2.803208 0.000003 0.000001
                                    CHANNELS 3 Zrotation Xrotation Yrotation
                                    JOINT LeftHandThumb3
                                    {
                                        OFFSET 2.395929 0.000004 -0.000003
                                        CHANNELS 3 Zrotation Xrotation Yrotation
                                        End Site
                                        {
                                            OFFSET 2.127676 0.000000 0.000000
                                        }
                                    }
                                }
                            }
                            JOINT LeftHandIndex1
                            {
                                OFFSET 8.680775 0.000005 3.375860
                                CHANNELS 3 Zrotation Xrotation Yrotation
                                JOINT LeftHandIndex2
                                {
                                    OFFSET 4.218178 -0.000000 -0.000000
                                    CHANNELS 3 Zrotation Xrotation Yrotation
                                    JOINT LeftHandIndex3
                                    {
                                        OFFSET 2.109086 -0.000004 0.000002
                                        CHANNELS 3 Zrotation Xrotation Yrotation
                                        End Site
                                        {
                                            OFFSET 1.872952 0.000000 0.000000
                                        }
                                    }
                                }
                            }
                            JOINT LeftHandMiddle1
                            {
                                OFFSET 8.680778 -0.000002 1.118860
                                CHANNELS 3 Zrotation Xrotation Yrotation
                                JOINT LeftHandMiddle2
                                {
                                    OFFSET 4.640003 -0.000004 -0.000001
                                    CHANNELS 3 Zrotation Xrotation Yrotation
                                    JOINT LeftHandMiddle3
                                    {
                                        OFFSET 2.530911 0.000002 -0.000001
                                        CHANNELS 3 Zrotation Xrotation Yrotation
                                        End Site
                                        {
                                            OFFSET 2.247544 0.000000 0.000000
                                        }
                                    }
                                }
                            }
                            JOINT LeftHandRing1
                            {
                                OFFSET 8.198517 0.000004 -1.118860
                                CHANNELS 3 Zrotation Xrotation Yrotation
                                JOINT LeftHandRing2
                                {
                                    OFFSET 4.218183 -0.000002 -0.000002
                                    CHANNELS 3 Zrotation Xrotation Yrotation
                                    JOINT LeftHandRing3
                                    {
                                        OFFSET 2.109094 0.000005 -0.000000
                                        CHANNELS 3 Zrotation Xrotation Yrotation
                                        End Site
                                        {
                                            OFFSET 1.872952 0.000000 0.000000
                                        }
                                    }
                                }
                            }
                            JOINT LeftHandPinky1
                            {
                                OFFSET 7.716254 0.000002 -3.375863
                                CHANNELS 3 Zrotation Xrotation Yrotation
                                JOINT LeftHandPinky2
                                {
                                    OFFSET 3.374536 0.000002 0.000001
                                    CHANNELS 3 Zrotation Xrotation Yrotation
                                    JOINT LeftHandPinky3
                                    {
                                        OFFSET 1.687274 -0.000002 -0.000004
                                        CHANNELS 3 Zrotation Xrotation Yrotation
                                        End Site
                                        {
                                            OFFSET 1.498360 0.000000 0.000000
                                        }
                                    }
                                }
                            }
                        }
                    }
                }
            }
            JOINT RightShoulder
            {
                OFFSET -3.550529 15.465699 -0.908801
                CHANNELS 3 Zrotation Xrotation Yrotation
                JOINT RightArm
                {
                    OFFSET -12.513299 -0.000001 -0.000000
                    CHANNELS 3 Zrotation Xrotation Yrotation
                    JOINT RightForeArm
                    {
                        OFFSET -24.226000 -0.000003 -0.000001
                        CHANNELS 3 Zrotation Xrotation Yrotation
                        JOINT RightHand
                        {
                            OFFSET -20.711397 -0.000003 -0.000002
                            CHANNELS 3 Zrotation Xrotation Yrotation
                            JOINT RightHandThumb1
                            {
                                OFFSET -2.121970 -2.411331 3.375859
                                CHANNELS 3 Zrotation Xrotation Yrotation
                                JOINT RightHandThumb2
                                {
                                    OFFSET -2.803209 -0.000004 0.000004
                                    CHANNELS 3 Zrotation Xrotation Yrotation
                                    JOINT RightHandThumb3
                                    {
                                        OFFSET -2.395928 0.000004 -0.000003
                                        CHANNELS 3 Zrotation Xrotation Yrotation
                                        End Site
                                        {
                                            OFFSET -2.127676 0.000000 0.000000
                                        }
                                    }
                                }
                            }
                            JOINT RightHandIndex1
                            {
                                OFFSET -8.680779 0.000001 3.375859
                                CHANNELS 3 Zrotation Xrotation Yrotation
                                JOINT RightHandIndex2
                                {
                                    OFFSET -4.218179 0.000003 -0.000001
                                    CHANNELS 3 Zrotation Xrotation Yrotation
                                    JOINT RightHandIndex3
                                    {
                                        OFFSET -2.109090 -0.000002 0.000000
                                        CHANNELS 3 Zrotation Xrotation Yrotation
                                        End Site
                                        {
                                            OFFSET -1.872952 0.000000 0.000000
                                        }
                                    }
                                }
                            }
                            JOINT RightHandMiddle1
                            {
                                OFFSET -8.680779 -0.000002 1.118859
                                CHANNELS 3 Zrotation Xrotation Yrotation
                                JOINT RightHandMiddle2
                                {
                                    OFFSET -4.639998 0.000003 -0.000001
                                    CHANNELS 3 Zrotation Xrotation Yrotation
                                    JOINT RightHandMiddle3
                                    {
                                        OFFSET -2.530910 -0.000000 -0.000000
                                        CHANNELS 3 Zrotation Xrotation Yrotation
                                        End Site
                                        {
                                            OFFSET -2.247544 0.000000 0.000000
                                        }
                                    }
                                }
                            }
                            JOINT RightHandRing1
                            {
                                OFFSET -8.198519 -0.000004 -1.118859
                                CHANNELS 3 Zrotation Xrotation Yrotation
                                JOINT RightHandRing2
                                {
                                    OFFSET -4.218180 -0.000005 0.000000
                                    CHANNELS 3 Zrotation Xrotation Yrotation
                                    JOINT RightHandRing3
                                    {
                                        OFFSET -2.109090 0.000002 0.000002
                                        CHANNELS 3 Zrotation Xrotation Yrotation
                                        End Site
                                        {
                                            OFFSET -1.872952 0.000000 0.000000
                                        }
                                    }
                                }
                            }
                            JOINT RightHandPinky1
                            {
                                OFFSET -7.716249 0.000004 -3.375858
                                CHANNELS 3 Zrotation Xrotation Yrotation
                                JOINT RightHandPinky2
                                {
                                    OFFSET -3.374539 0.000003 -0.000000
                                    CHANNELS 3 Zrotation Xrotation Yrotation
                                    JOINT RightHandPinky3
                                    {
                                        OFFSET -1.687270 -0.000004 -0.000001
                                        CHANNELS 3 Zrotation Xrotation Yrotation
                                        End Site
                                        {
                                            OFFSET -1.498360 0.000000 0.000000
                                        }
                                    }
                                }
                            }
                        }
                    }
                }
            }
        }
    }
    JOINT LeftUpLeg
    {
        OFFSET 8.880377 0.000003 0.000001
        CHANNELS 3 Zrotation Xrotation Yrotation
        JOINT LeftLeg
        {
            OFFSET -0.000000 -40.387413 0.000001
            CHANNELS 3 Zrotation Xrotation Yrotation
            JOINT LeftFoot
            {
                OFFSET -0.000000 -36.911304 0.000000
                CHANNELS 3 Zrotation Xrotation Yrotation
                JOINT LeftToeBase
                {
                    OFFSET 0.000003 -5.772240 13.320597
                    CHANNELS 3 Zrotation Xrotation Yrotation
                    End Site
                    {
                        OFFSET 0.000000 0.000000 3.552151
                    }
                }
            }
        }
    }
    JOINT RightUpLeg
    {
        OFFSET -8.880380 -0.000003 -0.000001
        CHANNELS 3 Zrotation Xrotation Yrotation
        JOINT RightLeg
        {
            OFFSET 0.000001 -40.387405 0.000000
            CHANNELS 3 Zrotation Xrotation Yrotation
            JOINT RightFoot
            {
                OFFSET -0.000001 -36.911304 -0.000001
                CHANNELS 3 Zrotation Xrotation Yrotation
                JOINT RightToeBase
                {
                    OFFSET 0.000000 -5.772241 13.320600
                    CHANNELS 3 Zrotation Xrotation Yrotation
                    End Site
                    {
                        OFFSET 0.000000 0.000000 3.552151
                    }
                }
            }
        }
    }
}
MOTION
Frames: 5
Frame Time: 0.013889
165.124435    82.940079    125.053963    -4.504666    5.427333    48.562523    -1.597243    -26.511112    -3.574572    0.852804    13.165609    -3.308349    4.746332    -2.779910    -1.830661    1.340981    2.594137    -2.115561    -1.258052    0.517981    -3.963952    -24.858053    30.267513    -35.945717    -6.285099    -11.044025    -29.896456    -20.644676    6.069260    1.889778    33.298172    32.791435    -43.918289    -14.798440    -1.245189    23.286066    -0.000000    0.000000    -0.000000    -12.680702    17.588282    -6.909024    -12.078741    0.000002    -0.000001    -12.078747    0.000000    -0.000001    -10.813721    8.842734    -3.717461    -10.683671    0.000000    -0.000002    -10.683667    0.000000    -0.000001    -10.108063    -8.862545    -3.699423    -9.986144    -0.000003    -0.000003    -9.986122    -0.000000    0.000004    -9.757632    -17.756021    -7.254416    -9.288598    0.000002    -0.000002    -9.288607    -0.000004    0.000004    -0.884345    1.896446    3.135061    52.257309    24.801802    0.526917    1.030511    -8.967754    6.582580    34.220203    2.115308    -24.116735    -39.765610    25.950243    50.223995    14.926014    -1.300066    -23.283230    -0.000000    0.000000    -0.000000    13.707366    17.519073    15.952134    13.060031    0.000004    0.000003    13.060018    -0.000001    -0.000010    14.307344    8.725227    7.860167    14.138332    0.000010    0.000013    14.138307    -0.000003    -0.000007    14.852365    -8.703988    3.375218    14.677442    -0.000007    0.000004    14.677479    0.000011    0.000005    15.960675    -17.348463    7.028674    15.216597    0.000009    0.000002    15.216599    -0.000000    -0.000007    5.014756    10.099531    17.964087    0.000007    23.674780    -0.000015    4.955367    17.847338    -17.505388    -0.000002    -19.795696    -0.000006    6.412669    -8.709180    -26.124258    -0.000001    4.264227    0.000001    4.692144    -6.160625    -10.672273    -0.000001    3.059515    -0.000001    
165.243210    82.914207    125.376961    -4.615181    5.318519    48.781750    -1.438232    -26.561159    -3.213722    0.613513    13.108128    -2.938417    4.625706    -2.721818    -2.422518    1.408731    2.684067    -2.700342    -1.497823    0.404943    -3.822881    -26.287600    28.444229    -34.505524    -5.733112    -10.477513    -28.902561    -19.941080    5.841010    1.645172    33.419727    32.691452    -43.995045    -14.853082    -1.268690    23.284855    -0.000000    0.000000    -0.000000    -12.809753    17.579870    -6.914109    -12.202048    -0.000004    0.000001    -12.202044    0.000000    -0.000001    -10.947814    8.838821    -3.718889    -10.816236    -0.000006    0.000004    -10.816238    0.000004    -0.000004    -10.246849    -8.858753    -3.735005    -10.123326    0.000002    -0.000002    -10.123333    -0.000002    -0.000001    -9.906337    -17.748539    -7.328171    -9.430427    0.000000    0.000000    -9.430411    0.000001    0.000005    -1.053421    1.839019    3.279354    51.313435    24.424665    1.505783    0.967272    -8.775792    6.314817    33.778450    2.443384    -24.730015    -39.619335    26.361130    49.488823    15.103954    -1.376626    -23.279072    -0.000000    0.000000    -0.000000    13.367196    17.542585    14.982075    12.734808    0.000005    -0.000001    12.734811    -0.000004    -0.000006    14.206646    8.729054    7.339171    14.038721    0.000001    0.000010    14.038711    -0.000003    0.000000    14.865708    -8.703463    3.121490    14.690657    -0.000002    -0.000003    14.690670    0.000001    -0.000000    16.092203    -17.337713    6.556383    15.342594    -0.000003    0.000000    15.342620    -0.000000    0.000003    5.499119    9.983774    17.890768    0.000002    24.105755    0.000006    4.814570    18.181108    -17.889412    -0.000001    -19.466745    0.000004    6.690188    -8.440565    -26.262074    -0.000001    4.120071    0.000000    4.577704    -6.286405    -10.719654    -0.000001    3.002187    0.000001    
165.417313    82.889061    125.808754    -4.752126    5.155554    49.074654    -1.218279    -26.617651    -2.717529    0.306078    13.056620    -2.435668    4.405075    -2.668417    -3.261897    1.516343    2.723252    -3.529296    -1.759311    0.216358    -3.576100    -28.103844    25.961931    -32.756996    -5.251919    -10.019742    -27.848310    -18.817743    5.083376    1.262598    33.626732    32.535900    -44.008816    -14.890087    -1.284620    23.284033    -0.000000    0.000000    -0.000000    -12.870334    17.575899    -6.822931    -12.259948    -0.000001    -0.000003    -12.259932    0.000001    0.000010    -11.071562    8.835162    -3.663436    -10.938570    0.000000    -0.000003    -10.938560    -0.000000    0.000003    -10.403198    -8.854420    -3.818247    -10.277871    -0.000000    0.000003    -10.277878    -0.000003    -0.000002    -10.102139    -17.738512    -7.506186    -9.617187    -0.000003    -0.000000    -9.617179    -0.000000    0.000002    -1.309952    1.795876    3.412783    50.109123    23.996635    2.797123    0.930276    -8.802286    6.057085    32.898560    2.710113    -25.252436    -39.544277    26.666187    48.833389    15.238144    -1.434306    -23.275774    -0.000000    0.000000    -0.000000    12.962781    17.569782    13.756549    12.348291    0.000015    -0.000005    12.348287    -0.000006    0.000008    14.060575    8.734580    6.687603    13.894231    0.000002    -0.000000    13.894214    0.000001    -0.000010    14.841981    -8.704411    2.776154    14.667184    -0.000003    0.000000    14.667194    0.000006    -0.000004    16.194025    -17.329334    5.903238    15.440162    0.000000    0.000003    15.440138    -0.000000    -0.000007    6.150932    9.753860    17.763580    0.000001    24.842566    0.000002    4.568547    18.609367    -18.246609    -0.000000    -18.960146    -0.000002    7.043543    -8.076886    -26.384829    0.000001    3.994356    0.000005    4.445215    -6.454306    -10.817257    -0.000002    2.920431    -0.000001    
165.530930    82.869873    126.134705    -4.845436    5.003831    49.277088    -1.043489    -26.646893    -2.325645    0.093172    13.056347    -2.045848    4.206205    -2.649701    -3.906508    1.611041    2.703982    -4.166410    -1.935082    0.065114    -3.378450    -29.290030    24.123032    -31.532228    -4.891221    -9.581835    -27.207920    -17.998487    4.645370    1.056198    33.700825    32.485794    -43.972897    -14.957158    -1.313470    23.282513    -0.000000    0.000000    -0.000000    -12.939031    17.571369    -6.684166    -12.325584    -0.000003    -0.000002    -12.325573    0.000002    0.000001    -11.167609    8.832300    -3.589679    -11.033506    0.000000    -0.000001    -11.033507    0.000002    -0.000002    -10.514085    -8.851312    -3.880895    -10.387480    -0.000003    -0.000004    -10.387457    -0.000001    0.000007    -10.232419    -17.731733    -7.637024    -9.741435    0.000000    -0.000005    -9.741439    -0.000002    -0.000000    -1.456289    1.849122    3.527298    49.297016    23.861856    3.763181    0.897622    -8.596260    5.983978    32.548531    3.243628    -25.607035    -39.773361    26.576292    48.539825    15.187291    -1.412449    -23.277037    -0.000000    0.000000    -0.000000    12.584676    17.594482    13.010731    11.986984    0.000005    -0.000001    11.987000    -0.000008    0.000004    13.877404    8.741427    6.285416    13.713039    0.000002    0.000003    13.713036    -0.000004    -0.000013    14.749883    -8.708043    2.526284    14.576068    0.000004    0.000003    14.576047    -0.000013    0.000002    16.192911    -17.329422    5.431039    15.439079    0.000003    -0.000000    15.439073    -0.000004    0.000001    6.659888    9.540771    17.650120    0.000005    25.487049    -0.000012    4.419003    18.969702    -18.474480    -0.000007    -18.583424    0.000002    7.331954    -7.800546    -26.481184    0.000002    3.928975    0.000002    4.393526    -6.594642    -10.875065    -0.000001    2.851544    -0.000001    
165.644760    82.849510    126.463303    -4.925303    4.855784    49.469521    -0.863259    -26.675108    -1.922351    -0.104569    13.022212    -1.649984    3.937306    -2.586746    -4.544903    1.682758    2.698810    -4.790936    -2.141474    -0.082140    -3.167751    -30.413338    22.281563    -30.349939    -4.587417    -9.188565    -26.678307    -17.326956    4.229521    0.993882    33.711239    32.485264    -43.920326    -15.055041    -1.355581    23.280233    -0.000000    0.000000    -0.000000    -13.007276    17.566843    -6.556773    -12.390807    0.000001    -0.000010    -12.390799    -0.000005    0.000003    -11.268318    8.829268    -3.520827    -11.133057    -0.000002    0.000001    -11.133051    -0.000000    0.000001    -10.632152    -8.847960    -3.910566    -10.504201    -0.000004    0.000002    -10.504188    -0.000000    0.000002    -10.372751    -17.724340    -7.702775    -9.875318    -0.000002    0.000002    -9.875318    -0.000002    -0.000000    -1.580836    1.907839    3.618991    48.486580    23.830418    4.687123    0.859725    -8.252973    5.968063    32.747005    4.072389    -25.996931    -40.738762    25.864908    48.266262    14.812346    -1.251180    -23.285761    -0.000000    0.000000    -0.000000    11.812719    17.642620    12.578180    11.249702    0.000005    -0.000001    11.249675    -0.000000    -0.000003    13.457953    8.756765    6.016114    13.298180    0.000009    0.000002    13.298203    -0.000017    -0.000012    14.493489    -8.718056    2.296709    14.322427    -0.000001    0.000000    14.322433    0.000004    0.000006    16.096476    -17.337357    5.020829    15.346691    0.000003    0.000006    15.346689    0.000002    -0.000000    7.168099    9.302535    17.558262    -0.000008    26.175343    0.000012    4.305773    19.420126    -18.708296    -0.000002    -18.230463    0.000006    7.611892    -7.503993    -26.603624    -0.000001    3.839568    -0.000004    4.361249    -6.718906    -10.913472    -0.000001    2.783191    -0.000001    
